<svg width="85" height="86" viewBox="0 0 85 86" fill="none" xmlns="http://www.w3.org/2000/svg">
<rect x="42.5527" y="1.7032" width="59" height="59" rx="29.5" transform="rotate(45 42.5527 1.7032)" fill="#191D25" stroke="#F3BA2F"/>
<path d="M44.7069 44.63C44.7069 49.8357 40.4753 54.0569 35.2528 54.0569C34.0132 54.0585 32.7854 53.816 31.6395 53.3432C30.4936 52.8703 29.4521 52.1764 28.5744 51.301C27.6967 50.4257 27 49.386 26.5241 48.2414C26.0482 47.0968 25.8024 45.8696 25.8008 44.63C25.8008 39.4222 30.0324 35.2031 35.2528 35.2031C36.4926 35.2012 37.7206 35.4435 38.8667 35.9163C40.0128 36.389 41.0546 37.0829 41.9325 37.9583C42.8105 38.8336 43.5073 39.8734 43.9834 41.0182C44.4594 42.1629 44.7053 43.3902 44.7069 44.63ZM55.0765 44.63C55.0765 49.532 52.9607 53.5038 50.3505 53.5038C47.7403 53.5038 45.6245 49.5299 45.6245 44.63C45.6245 39.728 47.7403 35.7562 50.3505 35.7562C52.9607 35.7562 55.0765 39.7301 55.0765 44.63ZM59.3186 44.63C59.3186 49.0208 58.5749 52.58 57.6552 52.58C56.7377 52.58 55.994 49.0187 55.994 44.63C55.994 40.2392 56.7377 36.68 57.6573 36.68C58.5749 36.68 59.3186 40.2392 59.3186 44.63Z" fill="#F3BA2F"/>
</svg>
