<svg width="116" height="115" viewBox="0 0 116 115" fill="none" xmlns="http://www.w3.org/2000/svg">
<rect y="0.707107" width="80.2424" height="80.2424" transform="matrix(-0.707107 0.707107 0.707107 0.707107 57.9453 0.207107)" fill="#241D0A" stroke="#F3BA2F"/>
<path d="M70.9969 44.5757L44.4019 54.8312C42.5869 55.5602 42.5974 56.5727 44.0689 57.0242L50.8969 59.1542L66.6949 49.1867C67.4419 48.7322 68.1244 48.9767 67.5634 49.4747L54.7639 61.0262H54.7609L54.7639 61.0277L54.2929 68.0657C54.9829 68.0657 55.2874 67.7492 55.6744 67.3757L58.9909 64.1507L65.8894 69.2462C67.1614 69.9467 68.0749 69.5867 68.3914 68.0687L72.9199 46.7267C73.3834 44.8682 72.2104 44.0267 70.9969 44.5757V44.5757Z" fill="#F3BA2F"/>
</svg>
