<svg width="115" height="115" viewBox="0 0 115 115" fill="none" xmlns="http://www.w3.org/2000/svg">
<rect y="0.707107" width="80.2424" height="80.2424" transform="matrix(-0.707107 0.707107 0.707107 0.707107 56.9473 0.207107)" fill="url(#paint0_linear_740_185)" stroke="#F3BA2F"/>
<g clip-path="url(#clip0_740_185)">
<path d="M69.9235 45.7384C67.6285 44.7034 65.1685 43.9384 62.596 43.5034C62.5731 43.4991 62.5494 43.5019 62.5281 43.5116C62.5069 43.5212 62.4892 43.5373 62.4775 43.5574C62.1625 44.1109 61.8115 44.8324 61.5655 45.4024C58.8371 44.9948 56.0633 44.9948 53.335 45.4024C53.061 44.7707 52.752 44.1548 52.4095 43.5574C52.3979 43.537 52.3803 43.5206 52.3591 43.5104C52.338 43.5003 52.3142 43.4968 52.291 43.5004C49.72 43.9354 47.26 44.7004 44.9635 45.7369C44.9437 45.7452 44.927 45.7594 44.9155 45.7774C40.2475 52.6399 38.968 59.3329 39.5965 65.9419C39.5982 65.9581 39.6033 65.9738 39.6113 65.988C39.6192 66.0022 39.63 66.0146 39.643 66.0244C42.3676 68.0081 45.4065 69.5192 48.6325 70.4944C48.655 70.5014 48.679 70.5014 48.7015 70.4944C48.724 70.4874 48.7438 70.4739 48.7585 70.4554C49.4515 69.5254 50.0695 68.5429 50.5975 67.5109C50.629 67.4509 50.599 67.3789 50.536 67.3549C49.567 66.99 48.6281 66.5497 47.728 66.0379C47.7118 66.0287 47.6982 66.0156 47.6883 65.9998C47.6785 65.984 47.6727 65.966 47.6715 65.9474C47.6703 65.9288 47.6737 65.9103 47.6815 65.8933C47.6893 65.8764 47.7011 65.8617 47.716 65.8504C47.905 65.7109 48.094 65.5654 48.274 65.4199C48.2902 65.4069 48.3097 65.3985 48.3304 65.3959C48.351 65.3932 48.372 65.3964 48.391 65.4049C54.2815 68.0509 60.661 68.0509 66.4825 65.4049C66.5015 65.3959 66.5227 65.3923 66.5437 65.3947C66.5646 65.3971 66.5845 65.4053 66.601 65.4184C66.781 65.5654 66.9685 65.7109 67.159 65.8504C67.174 65.8614 67.186 65.876 67.1941 65.8927C67.2021 65.9095 67.2058 65.928 67.2049 65.9466C67.204 65.9652 67.1985 65.9833 67.1889 65.9992C67.1794 66.0151 67.166 66.0284 67.15 66.0379C66.253 66.5539 65.32 66.9904 64.3405 67.3534C64.3254 67.3589 64.3117 67.3675 64.3003 67.3787C64.2888 67.3899 64.2799 67.4034 64.2741 67.4183C64.2683 67.4332 64.2657 67.4492 64.2665 67.4651C64.2674 67.4811 64.2716 67.4967 64.279 67.5109C64.819 68.5414 65.437 69.5224 66.1165 70.4539C66.1306 70.4731 66.1503 70.4874 66.1728 70.4949C66.1954 70.5024 66.2197 70.5028 66.2425 70.4959C69.474 69.5234 72.5179 68.0116 75.2455 66.0244C75.2588 66.0151 75.27 66.0031 75.2782 65.9891C75.2865 65.9752 75.2917 65.9596 75.2935 65.9434C76.0435 58.3024 74.0365 51.6634 69.97 45.7804C69.96 45.7613 69.9435 45.7464 69.9235 45.7384ZM51.478 61.9174C49.705 61.9174 48.2425 60.3139 48.2425 58.3474C48.2425 56.3794 49.6765 54.7774 51.478 54.7774C53.293 54.7774 54.742 56.3929 54.7135 58.3474C54.7135 60.3154 53.2795 61.9174 51.478 61.9174ZM63.4405 61.9174C61.666 61.9174 60.205 60.3139 60.205 58.3474C60.205 56.3794 61.6375 54.7774 63.4405 54.7774C65.2555 54.7774 66.7045 56.3929 66.676 58.3474C66.676 60.3154 65.257 61.9174 63.4405 61.9174Z" fill="#F3BA2F"/>
</g>
<defs>
<linearGradient id="paint0_linear_740_185" x1="9.74979" y1="3.11561e-07" x2="114.889" y2="33.878" gradientUnits="userSpaceOnUse">
<stop stop-color="#0E0A00"/>
<stop offset="1" stop-color="#7E5A00"/>
</linearGradient>
<clipPath id="clip0_740_185">
<rect width="36" height="36" fill="white" transform="translate(39.4473 39)"/>
</clipPath>
</defs>
</svg>
