<svg width="86" height="85" viewBox="0 0 86 85" fill="none" xmlns="http://www.w3.org/2000/svg">
<rect x="43.3555" y="0.759841" width="59" height="59" rx="29.5" transform="rotate(45 43.3555 0.759841)" fill="#191D25" stroke="#F3BA2F"/>
<path d="M57.3569 34.98C56.3288 35.4348 55.2244 35.742 54.0634 35.8809C55.2614 35.1654 56.1576 34.0392 56.5849 32.7125C55.4594 33.3798 54.2275 33.8496 52.9429 34.1013C52.0791 33.1806 50.9349 32.5703 49.6879 32.3653C48.441 32.1602 47.1612 32.3718 46.0471 32.9672C44.933 33.5626 44.047 34.5085 43.5266 35.6581C43.0063 36.8077 42.8807 38.0965 43.1694 39.3247C40.8887 39.2104 38.6576 38.6186 36.6209 37.5879C34.5842 36.5572 32.7873 35.1105 31.347 33.3417C30.8545 34.1898 30.5713 35.173 30.5713 36.2201C30.5708 37.1628 30.8033 38.091 31.2483 38.9224C31.6934 39.7539 32.3371 40.4628 33.1224 40.9863C32.2117 40.9574 31.321 40.7117 30.5245 40.2698V40.3435C30.5244 41.6656 30.9826 42.9471 31.8212 43.9704C32.6599 44.9937 33.8274 45.6958 35.1257 45.9577C34.2808 46.186 33.395 46.2196 32.5351 46.056C32.9014 47.1936 33.6149 48.1884 34.5757 48.9011C35.5366 49.6139 36.6966 50.0088 37.8935 50.0307C35.8617 51.6228 33.3525 52.4864 30.7695 52.4826C30.312 52.4827 29.8548 52.4561 29.4004 52.4027C32.0223 54.0855 35.0744 54.9786 38.1914 54.9751C48.7432 54.9751 54.5115 46.2515 54.5115 38.6856C54.5115 38.4398 54.5054 38.1915 54.4943 37.9457C55.6163 37.1357 56.5848 36.1327 57.3545 34.9837L57.3569 34.98Z" fill="#F3BA2F"/>
</svg>
